solid slope
 facet normal -0.000000e+00 -1.000000e+00  0.000000e+00
   outer loop
     vertex  1.407000e+01 -5.000000e-01 -2.220400e-16
     vertex  0.000000e+00 -5.000000e-01  0.000000e+00
     vertex  1.393100e+01 -5.000000e-01 -1.393100e+00
   endloop
 endfacet
 facet normal  0.000000e+00 -1.000000e+00  0.000000e+00
   outer loop
     vertex  0.000000e+00 -5.000000e-01  0.000000e+00
     vertex  0.000000e+00 -5.000000e-01 -1.393100e+00
     vertex  1.393100e+01 -5.000000e-01 -1.393100e+00
   endloop
 endfacet
 facet normal -0.000000e+00 -1.000000e+00  0.000000e+00
   outer loop
     vertex  1.407000e+01  5.000000e-01 -2.220400e-16
     vertex  0.000000e+00  5.000000e-01  0.000000e+00
     vertex  1.393100e+01  5.000000e-01 -1.393100e+00
   endloop
 endfacet
 facet normal  0.000000e+00 -1.000000e+00  0.000000e+00
   outer loop
     vertex  0.000000e+00  5.000000e-01  0.000000e+00
     vertex  0.000000e+00  5.000000e-01 -1.393100e+00
     vertex  1.393100e+01  5.000000e-01 -1.393100e+00
   endloop
 endfacet
 facet normal -1.000000e+00  0.000000e+00  0.000000e+00
   outer loop
     vertex  0.000000e+00 -5.000000e-01 -1.393100e+00
     vertex  0.000000e+00 -5.000000e-01  0.000000e+00
     vertex  0.000000e+00  5.000000e-01 -1.393100e+00
   endloop
 endfacet
 facet normal  1.578109e-17 -0.000000e+00  1.000000e+00
   outer loop
     vertex  0.000000e+00 -5.000000e-01  0.000000e+00
     vertex  1.407000e+01 -5.000000e-01 -2.220400e-16
     vertex  0.000000e+00  5.000000e-01  0.000000e+00
   endloop
 endfacet
 facet normal  9.950591e-01  0.000000e+00 -9.928449e-02
   outer loop
     vertex  1.407000e+01 -5.000000e-01 -2.220400e-16
     vertex  1.393100e+01 -5.000000e-01 -1.393100e+00
     vertex  1.407000e+01  5.000000e-01 -2.220400e-16
   endloop
 endfacet
 facet normal  0.000000e+00  0.000000e+00 -1.000000e+00
   outer loop
     vertex  1.393100e+01 -5.000000e-01 -1.393100e+00
     vertex  0.000000e+00 -5.000000e-01 -1.393100e+00
     vertex  1.393100e+01  5.000000e-01 -1.393100e+00
   endloop
 endfacet
 facet normal  1.000000e+00  0.000000e+00 -0.000000e+00
   outer loop
     vertex  0.000000e+00  5.000000e-01 -1.393100e+00
     vertex  0.000000e+00  5.000000e-01  0.000000e+00
     vertex  0.000000e+00 -5.000000e-01  0.000000e+00
   endloop
 endfacet
 facet normal -1.578109e-17  0.000000e+00 -1.000000e+00
   outer loop
     vertex  0.000000e+00  5.000000e-01  0.000000e+00
     vertex  1.407000e+01  5.000000e-01 -2.220400e-16
     vertex  1.407000e+01 -5.000000e-01 -2.220400e-16
   endloop
 endfacet
 facet normal -9.950591e-01  0.000000e+00  9.928449e-02
   outer loop
     vertex  1.407000e+01  5.000000e-01 -2.220400e-16
     vertex  1.393100e+01  5.000000e-01 -1.393100e+00
     vertex  1.393100e+01 -5.000000e-01 -1.393100e+00
   endloop
 endfacet
 facet normal  0.000000e+00  0.000000e+00  1.000000e+00
   outer loop
     vertex  1.393100e+01  5.000000e-01 -1.393100e+00
     vertex  0.000000e+00  5.000000e-01 -1.393100e+00
     vertex  0.000000e+00 -5.000000e-01 -1.393100e+00
   endloop
 endfacet
endsolid slope
